<svg id="Layer_1" data-name="Layer 1" xmlns="http://www.w3.org/2000/svg" viewBox="0 0 512 512"><defs><style>.cls-1{fill:#898989;}</style></defs><title>location-pin-other</title><path class="cls-1" d="M256,512a5.71,5.71,0,0,1-3.16-1C244.38,505.4,45.51,371,45.51,210.49,45.51,94.42,139.93,0,256,0S466.49,94.42,466.49,210.49C466.49,371,267.62,505.4,259.16,511A5.71,5.71,0,0,1,256,512Zm0-500.62c-109.79,0-199.11,89.32-199.11,199.11C56.89,354.14,230.28,481.33,256,499.4c25.72-18.07,199.11-145.26,199.11-288.91C455.11,100.7,365.79,11.38,256,11.38Z"/><path class="cls-1" d="M256,307.2a96.71,96.71,0,1,1,96.71-96.71A96.82,96.82,0,0,1,256,307.2Zm0-182a85.33,85.33,0,1,0,85.33,85.33A85.43,85.43,0,0,0,256,125.16Z"/></svg>